<?xml version="1.0" standalone="no"?><!DOCTYPE svg PUBLIC "-//W3C//DTD SVG 1.1//EN" "http://www.w3.org/Graphics/SVG/1.1/DTD/svg11.dtd"><svg t="1588979314339" class="icon" viewBox="0 0 2195 1024" version="1.1" xmlns="http://www.w3.org/2000/svg" p-id="10293" xmlns:xlink="http://www.w3.org/1999/xlink" width="428.7109375" height="200"><defs><style type="text/css"></style></defs><path d="M570.107066 1016.690935l72.505925-69.436117a21.927195 21.927195 0 0 0 0-32.159886L284.322627 585.894647h1622.612419l-356.682369 328.030835a21.927195 21.927195 0 0 0 0 32.013704l72.505924 69.436117c9.355603 8.770878 24.266096 8.770878 33.621699 0l455.208565-418.809421a114.898501 114.898501 0 0 0 3.946895-3.654533l70.167024-64.612134a25.143183 25.143183 0 0 0 0-34.498787l-72.505925-66.951035L1656.234118 6.578158a24.266096 24.266096 0 0 0-33.475517 0l-72.798287 69.582299a21.927195 21.927195 0 0 0 0 32.159886l358.290364 329.346466h-1622.61242L642.466809 109.489793a21.927195 21.927195 0 0 0 0-32.013704L570.107066 8.039971a24.558458 24.558458 0 0 0-33.621698 0L81.130621 426.849393a114.898501 114.898501 0 0 0-3.946895 3.654533l-70.167024 64.612134a25.143183 25.143183 0 0 0 0 34.498787l72.505925 66.951035L536.485368 1016.690935c4.385439 4.239258 10.525054 6.578158 16.810849 6.578159a24.266096 24.266096 0 0 0 16.810849-6.578159z" fill="#8a8a8a" p-id="10294"></path></svg>